PathFileType	4	(X/Y/Z)	 2.2Hzhigh3min.trc
DataRate	CameraRate	NumFrames	NumMarkers	Units	OrigDataRate	OrigDataStartFrame	OrigNumFrames
200	200	10	35	m	200	251	1000
Frame#	Time	C7			LSH			RSH			MAN			RASI			LASI			HIPR			HIPL			RPSI			LPSI			COX			RTHI1			RTHI2			RTHI3			RTHI4			RSHA1			RSHA2			RSHA3			RSHA4			RHEEL			RMET5			RMET1			RTOE			LTHI1			LTHI2			LTHI3			LTHI4			LSHA1			LSHA2			LSHA3			LSHA4			LHEEL			LMET5			LMET1			LTOE			
		X1	Y1	Z1	X2	Y2	Z2	X3	Y3	Z3	X4	Y4	Z4	X5	Y5	Z5	X6	Y6	Z6	X7	Y7	Z7	X8	Y8	Z8	X9	Y9	Z9	X10	Y10	Z10	X11	Y11	Z11	X12	Y12	Z12	X13	Y13	Z13	X14	Y14	Z14	X15	Y15	Z15	X16	Y16	Z16	X17	Y17	Z17	X18	Y18	Z18	X19	Y19	Z19	X20	Y20	Z20	X21	Y21	Z21	X22	Y22	Z22	X23	Y23	Z23	X24	Y24	Z24	X25	Y25	Z25	X26	Y26	Z26	X27	Y27	Z27	X28	Y28	Z28	X29	Y29	Z29	X30	Y30	Z30	X31	Y31	Z31	X32	Y32	Z32	X33	Y33	Z33	X34	Y34	Z34	X35	Y35	Z35	
251	1.2550	-0.000000	0.000000	-0.000000	-0.222148	1.500380	-0.713552	-0.247133	1.493080	-0.381784	-0.163777	1.457954	-0.540192	-0.129480	1.057296	-0.418899	-0.117740	1.055954	-0.639507	-0.187093	1.113740	-0.396240	-0.175126	1.101083	-0.671368	-0.283285	1.088439	-0.482203	-0.282322	1.085557	-0.588036	-0.286450	1.094729	-0.532721	-0.214254	0.854133	-0.362801	-0.195565	0.797512	-0.361304	-0.133131	0.815900	-0.354683	-0.145410	0.876253	-0.356667	-0.214665	0.469211	-0.360973	-0.226542	0.427503	-0.364514	-0.159460	0.458019	-0.370745	-0.166661	0.418035	-0.370461	-0.291255	0.195817	-0.424814	-0.177731	0.087948	-0.370934	-0.146903	0.083952	-0.434927	-0.126360	0.070632	-0.427564	-0.200723	0.851555	-0.712412	-0.176458	0.795011	-0.710944	-0.115474	0.815332	-0.705740	-0.130814	0.873779	-0.706824	-0.225976	0.434910	-0.713054	-0.237945	0.396036	-0.712549	-0.176434	0.384436	-0.705286	-0.172573	0.428328	-0.707338	-0.308323	0.180255	-0.669414	-0.182007	0.091993	-0.718207	-0.150216	0.086218	-0.657349	-0.128701	0.070743	-0.658168	
252	1.2600	-0.000000	0.000000	-0.000000	-0.221775	1.497728	-0.713541	-0.247082	1.490389	-0.381686	-0.163981	1.455207	-0.540037	-0.130228	1.054866	-0.418845	-0.118105	1.053573	-0.639376	-0.187974	1.111179	-0.396191	-0.175512	1.098600	-0.671379	-0.283966	1.085678	-0.482317	-0.282860	1.082839	-0.588156	-0.287515	1.092040	-0.533031	-0.213623	0.851268	-0.362514	-0.194700	0.794737	-0.361161	-0.132290	0.813360	-0.355010	-0.144834	0.873670	-0.356905	-0.213877	0.467067	-0.361272	-0.226118	0.425487	-0.364862	-0.158821	0.455442	-0.371394	-0.166366	0.415528	-0.371191	-0.293324	0.194540	-0.425091	-0.180101	0.085479	-0.373612	-0.150218	0.081690	-0.438065	-0.129662	0.068319	-0.431126	-0.199334	0.849039	-0.712659	-0.174959	0.792548	-0.710928	-0.114089	0.813016	-0.704981	-0.129562	0.871449	-0.706186	-0.225262	0.432712	-0.712959	-0.237459	0.393907	-0.712443	-0.176057	0.381959	-0.704912	-0.171929	0.425814	-0.707000	-0.309611	0.178272	-0.669518	-0.182762	0.090130	-0.717212	-0.151257	0.084723	-0.656138	-0.129672	0.069325	-0.656730	
253	1.2650	-0.000000	0.000000	-0.000000	-0.221399	1.494842	-0.713494	-0.247041	1.487446	-0.381584	-0.164132	1.452223	-0.539876	-0.130978	1.052204	-0.418776	-0.118455	1.050953	-0.639236	-0.188868	1.108379	-0.396138	-0.175863	1.095921	-0.671389	-0.284642	1.082674	-0.482437	-0.283378	1.079917	-0.588281	-0.288460	1.089114	-0.533300	-0.213058	0.848114	-0.362228	-0.193867	0.791682	-0.361049	-0.131502	0.810567	-0.355353	-0.144336	0.870835	-0.357125	-0.213035	0.464709	-0.361530	-0.225668	0.423288	-0.365184	-0.158150	0.452623	-0.372054	-0.166062	0.412779	-0.371931	-0.295516	0.193057	-0.425307	-0.182536	0.082960	-0.376223	-0.153642	0.079341	-0.441180	-0.133046	0.065951	-0.434685	-0.197998	0.846229	-0.712881	-0.173508	0.789790	-0.710895	-0.112766	0.810404	-0.704226	-0.128373	0.868821	-0.705520	-0.224456	0.430245	-0.712928	-0.236901	0.391539	-0.712408	-0.175638	0.379190	-0.704482	-0.171212	0.423012	-0.706622	-0.310945	0.176094	-0.669663	-0.183534	0.088078	-0.716133	-0.152410	0.083000	-0.654802	-0.130751	0.067678	-0.655131	
254	1.2700	-0.000000	0.000000	-0.000000	-0.220990	1.491719	-0.713408	-0.247017	1.484248	-0.381468	-0.164196	1.448974	-0.539719	-0.131729	1.049308	-0.418694	-0.118791	1.048097	-0.639088	-0.189793	1.105335	-0.396079	-0.176188	1.093044	-0.671394	-0.285318	1.079428	-0.482559	-0.283877	1.076779	-0.588406	-0.289287	1.085949	-0.533521	-0.212568	0.844677	-0.361970	-0.193081	0.788355	-0.360980	-0.130801	0.807568	-0.355758	-0.143927	0.867744	-0.357329	-0.212149	0.462119	-0.361764	-0.225204	0.420909	-0.365472	-0.157457	0.449562	-0.372723	-0.165763	0.409785	-0.372693	-0.297835	0.191380	-0.425501	-0.185038	0.080393	-0.378725	-0.157151	0.076909	-0.444210	-0.136487	0.063521	-0.438173	-0.196733	0.843127	-0.713073	-0.172122	0.786737	-0.710841	-0.111517	0.807498	-0.703457	-0.127265	0.865907	-0.704822	-0.223567	0.427520	-0.712959	-0.236276	0.388916	-0.712443	-0.175183	0.376144	-0.704004	-0.170432	0.419931	-0.706216	-0.312309	0.173739	-0.669844	-0.184352	0.085825	-0.714993	-0.153699	0.081008	-0.653366	-0.131975	0.065764	-0.653409	
255	1.2750	-0.000000	0.000000	-0.000000	-0.220608	1.488349	-0.713314	-0.247010	1.480772	-0.381339	-0.164216	1.445468	-0.539558	-0.132477	1.046178	-0.418597	-0.119119	1.044998	-0.638928	-0.190734	1.102052	-0.396024	-0.176494	1.089958	-0.671393	-0.285997	1.075930	-0.482681	-0.284368	1.073413	-0.588536	-0.289998	1.082513	-0.533694	-0.212155	0.840964	-0.361747	-0.192351	0.784758	-0.360961	-0.130192	0.804345	-0.356194	-0.143609	0.864395	-0.357522	-0.211232	0.459292	-0.361975	-0.224731	0.418308	-0.365732	-0.156754	0.446248	-0.373390	-0.165469	0.406546	-0.373476	-0.300267	0.189521	-0.425681	-0.187616	0.077756	-0.381079	-0.160714	0.074386	-0.447092	-0.139966	0.061013	-0.441512	-0.195551	0.839736	-0.713239	-0.170808	0.783390	-0.710750	-0.110351	0.804309	-0.702675	-0.126253	0.862703	-0.704092	-0.222598	0.424542	-0.713046	-0.235595	0.386046	-0.712537	-0.174700	0.372832	-0.703486	-0.169591	0.416581	-0.705787	-0.313702	0.171232	-0.670058	-0.185251	0.083350	-0.713820	-0.155151	0.078710	-0.651863	-0.133375	0.063534	-0.651610	
256	1.2800	-0.000000	0.000000	-0.000000	-0.220274	1.484721	-0.713214	-0.247029	1.477036	-0.381187	-0.164178	1.441697	-0.539401	-0.133226	1.042804	-0.418481	-0.119445	1.041651	-0.638763	-0.191681	1.098520	-0.395980	-0.176790	1.086650	-0.671387	-0.286677	1.072183	-0.482805	-0.284848	1.069816	-0.588670	-0.290489	1.078808	-0.533777	-0.211815	0.836984	-0.361570	-0.191680	0.780906	-0.361002	-0.129674	0.800880	-0.356661	-0.143380	0.860802	-0.357713	-0.210293	0.456245	-0.362170	-0.224250	0.415496	-0.365977	-0.156049	0.442685	-0.374057	-0.165193	0.403072	-0.374275	-0.302780	0.187480	-0.425894	-0.190288	0.075029	-0.383252	-0.164302	0.071758	-0.449765	-0.143469	0.058390	-0.444617	-0.194465	0.836051	-0.713355	-0.169577	0.779754	-0.710615	-0.109275	0.800850	-0.701862	-0.125340	0.859207	-0.703348	-0.221562	0.421316	-0.713174	-0.234859	0.382935	-0.712681	-0.174185	0.369264	-0.702939	-0.168698	0.412973	-0.705342	-0.315115	0.168603	-0.670308	-0.186263	0.080627	-0.712642	-0.156782	0.076074	-0.650337	-0.134976	0.060966	-0.649794	
257	1.2850	-0.000000	0.000000	-0.000000	-0.219998	1.480852	-0.713116	-0.247058	1.473021	-0.381014	-0.164119	1.437663	-0.539246	-0.133988	1.039183	-0.418366	-0.119770	1.038058	-0.638597	-0.192641	1.094735	-0.395940	-0.177086	1.083111	-0.671378	-0.287355	1.068183	-0.482937	-0.285316	1.065980	-0.588806	-0.290751	1.074828	-0.533762	-0.211544	0.832748	-0.361457	-0.191072	0.776795	-0.361116	-0.129237	0.797185	-0.357165	-0.143233	0.856964	-0.357909	-0.209339	0.452975	-0.362328	-0.223772	0.412465	-0.366206	-0.155353	0.438886	-0.374747	-0.164940	0.399368	-0.375087	-0.305373	0.185273	-0.426146	-0.193087	0.072174	-0.385216	-0.167886	0.069001	-0.452168	-0.146985	0.055621	-0.447401	-0.193481	0.832073	-0.713417	-0.168435	0.775834	-0.710425	-0.108299	0.797116	-0.701011	-0.124538	0.855432	-0.702607	-0.220458	0.417852	-0.713338	-0.234069	0.379594	-0.712870	-0.173639	0.365452	-0.702377	-0.167756	0.409123	-0.704887	-0.316543	0.165859	-0.670572	-0.187425	0.077628	-0.711491	-0.158609	0.073092	-0.648840	-0.136795	0.058037	-0.648022	
258	1.2900	-0.000000	0.000000	-0.000000	-0.219758	1.476737	-0.713016	-0.247108	1.468717	-0.380815	-0.164087	1.433368	-0.539087	-0.134757	1.035319	-0.418261	-0.120097	1.034224	-0.638428	-0.193610	1.090698	-0.395908	-0.177391	1.079331	-0.671373	-0.288034	1.063942	-0.483068	-0.285779	1.061898	-0.588952	-0.290894	1.070584	-0.533700	-0.211343	0.828256	-0.361427	-0.190525	0.772431	-0.361295	-0.128879	0.793256	-0.357700	-0.143160	0.852881	-0.358122	-0.208373	0.449492	-0.362465	-0.223304	0.409216	-0.366419	-0.154671	0.434845	-0.375463	-0.164713	0.395440	-0.375906	-0.308034	0.182908	-0.426459	-0.196049	0.069154	-0.386949	-0.171458	0.066075	-0.454248	-0.150519	0.052648	-0.449794	-0.192593	0.827806	-0.713417	-0.167383	0.771637	-0.710177	-0.107417	0.793114	-0.700127	-0.123843	0.851384	-0.701872	-0.219290	0.414162	-0.713527	-0.233224	0.376022	-0.713096	-0.173054	0.361419	-0.701814	-0.166772	0.405036	-0.704431	-0.317985	0.163012	-0.670847	-0.188771	0.074340	-0.710400	-0.160624	0.069757	-0.647423	-0.138835	0.054738	-0.646357	
259	1.2950	-0.000000	0.000000	-0.000000	-0.219546	1.472375	-0.712918	-0.247194	1.464113	-0.380584	-0.164114	1.428827	-0.538921	-0.135541	1.031199	-0.418159	-0.120436	1.030137	-0.638262	-0.194578	1.086404	-0.395881	-0.177707	1.075296	-0.671375	-0.288712	1.059452	-0.483202	-0.286239	1.057566	-0.589114	-0.290923	1.066072	-0.533597	-0.211195	0.823534	-0.361458	-0.190031	0.767834	-0.361539	-0.128560	0.789069	-0.358211	-0.143150	0.848561	-0.358364	-0.207402	0.445823	-0.362574	-0.222849	0.405736	-0.366628	-0.154009	0.430574	-0.376196	-0.164508	0.391300	-0.376703	-0.310721	0.180389	-0.426833	-0.199207	0.065934	-0.388435	-0.175013	0.062941	-0.455966	-0.154078	0.049428	-0.451727	-0.191802	0.823251	-0.713355	-0.166415	0.767166	-0.709857	-0.106626	0.788854	-0.699226	-0.123248	0.847067	-0.701154	-0.218064	0.410249	-0.713741	-0.232330	0.372226	-0.713347	-0.172432	0.357162	-0.701263	-0.165744	0.400719	-0.703979	-0.319452	0.160062	-0.671127	-0.190314	0.070751	-0.709400	-0.162812	0.066081	-0.646134	-0.141074	0.051086	-0.644859	
260	1.3000	-0.000000	0.000000	-0.000000	-0.219346	1.467765	-0.712816	-0.247311	1.459224	-0.380324	-0.164181	1.424034	-0.538753	-0.136336	1.026824	-0.418068	-0.120786	1.025796	-0.638108	-0.195547	1.081850	-0.395854	-0.178041	1.070997	-0.671389	-0.289383	1.054721	-0.483348	-0.286697	1.052979	-0.589289	-0.291059	1.061345	-0.533557	-0.211091	0.818589	-0.361566	-0.189583	0.763009	-0.361843	-0.128273	0.784632	-0.358714	-0.143192	0.844007	-0.358644	-0.206431	0.441973	-0.362664	-0.222407	0.402047	-0.366841	-0.153369	0.426086	-0.376943	-0.164332	0.386955	-0.377474	-0.313416	0.177731	-0.427292	-0.202584	0.062501	-0.389665	-0.178551	0.059561	-0.457297	-0.157688	0.045951	-0.453160	-0.191108	0.818408	-0.713233	-0.165531	0.762427	-0.709474	-0.105922	0.784341	-0.698303	-0.122755	0.842496	-0.700462	-0.216795	0.406118	-0.713972	-0.231384	0.368218	-0.713616	-0.171779	0.352690	-0.700737	-0.164685	0.396176	-0.703538	-0.320931	0.156984	-0.671392	-0.192056	0.066865	-0.708513	-0.165152	0.062076	-0.645008	-0.143486	0.047103	-0.643561	
